<svg width="80" height="80" viewBox="0 0 80 80" fill="none" xmlns="http://www.w3.org/2000/svg">
<g clip-path="url(#clip0_1_282)">
<path d="M80 32.4652V71.5123C80 72.3268 79.7859 73.0914 79.4076 73.7513C79.0052 74.4628 78.4129 75.0552 77.6998 75.4576C77.0398 75.8326 76.2785 76.0467 75.4656 76.0467H4.53441C3.72153 76.0467 2.96016 75.8326 2.3002 75.4576C1.58712 75.0552 0.994769 74.4628 0.592354 73.7513C0.214085 73.0914 0 72.3268 0 71.5123V32.4652C0 31.1952 0.521529 30.0475 1.36338 29.225H78.6366C79.4785 30.0475 80 31.1952 80 32.4652Z" fill="#1890FF"/>
<path d="M79.4076 73.7513C79.0052 74.4628 78.4129 75.0552 77.6998 75.4576L54.4563 52.2463C53.9847 51.7747 53.9847 51.0117 54.4547 50.5385C54.9264 50.0668 55.691 50.0668 56.1626 50.5385L79.4076 73.7513Z" fill="#0181FA"/>
<path d="M25.5437 52.2463L2.30025 75.4576C1.58718 75.0552 0.994822 74.4628 0.592407 73.7513L23.8375 50.5385C24.3091 50.0668 25.0737 50.0668 25.5453 50.5385C26.0153 51.0117 26.0153 51.7747 25.5437 52.2463Z" fill="#0181FA"/>
<path d="M78.6366 29.2256H74.9999C75.8418 30.0481 76.3633 31.1958 76.3633 32.4658V71.5129C76.3633 74.0175 74.3335 76.0473 71.8289 76.0473H75.4656C77.9702 76.0473 80 74.0175 80 71.5129V32.4658C80 31.1958 79.4785 30.0481 78.6366 29.2256Z" fill="#0181FA"/>
<path d="M78.6367 29.2255L46.1554 60.0891C42.7059 63.3664 37.2943 63.3664 33.8448 60.0891L1.36346 29.2255C2.18117 28.4239 3.29988 27.9314 4.53449 27.9314H75.4657C76.7003 27.9314 77.819 28.4239 78.6367 29.2255Z" fill="#EAF6FF"/>
<path d="M55.5718 27.9314C53.6113 36.7346 45.7561 43.3148 36.3638 43.3148C26.9698 43.3148 19.1147 36.7346 17.1541 27.9314H55.5718Z" fill="#C8EFFE"/>
<path d="M75.4656 27.9314H71.8289C72.3828 27.9314 72.9132 28.0305 73.4038 28.2121C74.2878 28.5395 74.5071 29.6938 73.8236 30.3433L42.5187 60.0891C41.2686 61.2767 39.7604 62.0317 38.1818 62.3586C40.9594 62.9337 43.9561 62.1786 46.1555 60.0891L78.6368 29.2255C77.8189 28.4239 76.7002 27.9314 75.4656 27.9314Z" fill="#C8EFFE"/>
<path d="M41.4113 69.135H38.5891C37.0078 69.135 35.726 67.853 35.726 66.2719V57.0382C35.726 55.4569 37.0079 54.1751 38.5891 54.1751H41.4113C42.9927 54.1751 44.2744 55.457 44.2744 57.0382V66.2719C44.2744 67.853 42.9925 69.135 41.4113 69.135Z" fill="#99E6FC"/>
<path d="M44.2738 57.0389V66.2719C44.2738 67.8526 42.9925 69.1355 41.4118 69.1355H39.3595C40.1289 68.6252 40.6376 67.7495 40.6376 66.7548V56.7169C40.6376 55.6079 40.0082 54.6485 39.0859 54.1753H41.4118C42.9925 54.1753 44.2738 55.4566 44.2738 57.0389Z" fill="#62DBFB"/>
<path d="M40.0001 43.3146C50.8696 43.3146 59.6811 34.5031 59.6811 23.6336C59.6811 12.7641 50.8696 3.95267 40.0001 3.95267C29.1306 3.95267 20.3192 12.7641 20.3192 23.6336C20.3192 34.5031 29.1306 43.3146 40.0001 43.3146Z" fill="#4FC123"/>
<path d="M39.9999 3.95267C39.3866 3.95267 38.7804 3.98212 38.1815 4.03701C48.1984 4.95484 56.044 13.3774 56.044 23.6336C56.044 33.8899 48.1982 42.3124 38.1815 43.2302C38.7804 43.2851 39.3866 43.3146 39.9999 43.3146C50.8694 43.3146 59.6809 34.5032 59.6809 23.6336C59.6809 12.7641 50.8694 3.95267 39.9999 3.95267Z" fill="#47A920"/>
<path d="M37.1556 23.1602L34.3407 20.3453C33.6226 19.6272 32.4582 19.6272 31.7401 20.3453L29.2997 22.7857C28.5817 23.5037 28.5817 24.6681 29.2997 25.3862L35.5521 31.6386C36.8479 32.9344 38.9488 32.9344 40.2446 31.6386L52.4707 19.4125C53.1888 18.6944 53.1888 17.53 52.4707 16.8119L50.2104 14.5516C49.4924 13.8335 48.328 13.8335 47.6099 14.5516L39.0011 23.1604C38.4915 23.6698 37.6653 23.6698 37.1556 23.1602Z" fill="#D1F19E"/>
<path d="M52.4709 16.8119L50.2106 14.5516C49.4925 13.8335 48.3281 13.8335 47.61 14.5516L46.8586 15.303C47.2068 15.3701 47.5395 15.5385 47.8091 15.8081L48.8343 16.8119C49.5524 17.53 49.5524 18.6944 48.8343 19.4125L38.1819 29.7152C37.0792 30.818 35.3948 30.9786 34.1183 30.2046L35.5524 31.6386C36.8482 32.9344 38.9491 32.9344 40.2449 31.6386L52.471 19.4125C53.1891 18.6942 53.1891 17.53 52.4709 16.8119Z" fill="#BBEC6C"/>
</g>
<defs>
<clipPath id="clip0_1_282">
<rect width="80" height="80" fill="white"/>
</clipPath>
</defs>
</svg>
