<svg width="16" height="17" viewBox="0 0 16 17" fill="none" xmlns="http://www.w3.org/2000/svg">
<path d="M12.6667 13.834H3.33333C2.97971 13.834 2.64057 13.6935 2.39052 13.4435C2.14048 13.1934 2 12.8543 2 12.5007V6.50066C2 6.14704 2.14048 5.8079 2.39052 5.55785C2.64057 5.3078 2.97971 5.16733 3.33333 5.16733H12.6667C13.0203 5.16733 13.3594 5.3078 13.6095 5.55785C13.8595 5.8079 14 6.14704 14 6.50066V12.5007C14 12.8543 13.8595 13.1934 13.6095 13.4435C13.3594 13.6935 13.0203 13.834 12.6667 13.834Z" stroke="#44C8F5"/>
<path d="M11 9.83399C10.9116 9.83399 10.8268 9.79888 10.7643 9.73636C10.7018 9.67385 10.6667 9.58907 10.6667 9.50066C10.6667 9.41226 10.7018 9.32747 10.7643 9.26496C10.8268 9.20245 10.9116 9.16733 11 9.16733C11.0884 9.16733 11.1732 9.20245 11.2357 9.26496C11.2982 9.32747 11.3334 9.41226 11.3334 9.50066C11.3334 9.58907 11.2982 9.67385 11.2357 9.73636C11.1732 9.79888 11.0884 9.83399 11 9.83399Z" fill="black" stroke="#44C8F5" stroke-linecap="round" stroke-linejoin="round"/>
<path d="M12 5.16734V4.23601C11.9999 4.03168 11.9529 3.83009 11.8626 3.64682C11.7722 3.46355 11.641 3.30349 11.4789 3.17902C11.3169 3.05454 11.1284 2.96897 10.928 2.92891C10.7277 2.88886 10.5208 2.89539 10.3233 2.94801L2.99 4.90334C2.70604 4.97901 2.45503 5.14638 2.27599 5.37943C2.09696 5.61247 1.99993 5.89813 2 6.19201V6.50067" stroke="#44C8F5"/>
</svg>
