<svg width="152" height="152" viewBox="0 0 152 152" fill="none" xmlns="http://www.w3.org/2000/svg">
<path d="M76 144.875C114.039 144.875 144.875 114.039 144.875 76C144.875 37.9614 114.039 7.125 76 7.125C37.9614 7.125 7.125 37.9614 7.125 76C7.125 114.039 37.9614 144.875 76 144.875Z" fill="#7F72F7"/>
<path fill-rule="evenodd" clip-rule="evenodd" d="M65.7826 42.8878L73.9383 46.968C74.5782 47.2889 75.2841 47.456 75.9998 47.456C76.7156 47.456 77.4215 47.2889 78.0613 46.968L86.2171 42.8878L94.3776 46.968C95.0174 47.2889 95.7233 47.456 96.4391 47.456C97.1549 47.456 97.8608 47.2889 98.5006 46.968L104.281 44.0753V107.925L98.5006 105.032C97.8608 104.711 97.1549 104.544 96.4391 104.544C95.7233 104.544 95.0174 104.711 94.3776 105.032L86.2171 109.112L78.0613 105.032C77.4215 104.711 76.7156 104.544 75.9998 104.544C75.2841 104.544 74.5782 104.711 73.9383 105.032L65.7826 109.112L57.6221 105.032C56.9823 104.711 56.2764 104.544 55.5606 104.544C54.8448 104.544 54.1389 104.711 53.4991 105.032L47.7183 107.925V44.0753L53.4991 46.968C54.1389 47.2889 54.8448 47.456 55.5606 47.456C56.2764 47.456 56.9823 47.2889 57.6221 46.968L65.7826 42.8878ZM55.5748 42.6883L49.6563 39.729C48.9544 39.3819 48.1756 39.2194 47.3934 39.2568C46.6112 39.2943 45.8515 39.5305 45.186 39.9431C44.5204 40.3557 43.971 40.9312 43.5897 41.6151C43.2083 42.2991 43.0075 43.0689 43.0063 43.852V108.148C43.0075 108.931 43.2083 109.701 43.5897 110.385C43.971 111.069 44.5204 111.644 45.186 112.057C45.8515 112.47 46.6112 112.706 47.3934 112.743C48.1756 112.781 48.9544 112.618 49.6563 112.271L55.5748 109.312L63.7353 113.392C64.3758 113.711 65.0814 113.877 65.7968 113.877C66.5122 113.877 67.2179 113.711 67.8583 113.392L75.9998 109.312L84.1556 113.392C84.796 113.711 85.5017 113.877 86.2171 113.877C86.9325 113.877 87.6381 113.711 88.2786 113.392L96.4391 109.312L102.358 112.271C103.06 112.618 103.838 112.781 104.621 112.743C105.403 112.706 106.162 112.47 106.828 112.057C107.494 111.644 108.043 111.069 108.424 110.385C108.806 109.701 109.006 108.931 109.008 108.148V43.852C109.006 43.0689 108.806 42.2991 108.424 41.6151C108.043 40.9312 107.494 40.3557 106.828 39.9431C106.162 39.5305 105.403 39.2943 104.621 39.2568C103.838 39.2194 103.06 39.3819 102.358 39.729L96.4248 42.6883L88.2643 38.608C87.6239 38.2892 86.9182 38.1233 86.2028 38.1233C85.4874 38.1233 84.7818 38.2892 84.1413 38.608L75.9998 42.6883L67.8441 38.608C67.2036 38.2892 66.498 38.1233 65.7826 38.1233C65.0672 38.1233 64.3615 38.2892 63.7211 38.608L55.5748 42.6883Z" fill="white"/>
<path fill-rule="evenodd" clip-rule="evenodd" d="M65.4455 64.3673L74.3185 73.2402C74.5391 73.4614 74.8012 73.6369 75.0897 73.7566C75.3783 73.8764 75.6876 73.938 76 73.938C76.3124 73.938 76.6217 73.8764 76.9103 73.7566C77.1988 73.6369 77.4609 73.4614 77.6815 73.2402L90.9815 59.9403C91.4141 59.4923 91.6535 58.8924 91.6481 58.2697C91.6427 57.647 91.3929 57.0513 90.9526 56.6109C90.5122 56.1706 89.9165 55.9208 89.2938 55.9154C88.6711 55.91 88.0712 56.1494 87.6232 56.582L76 68.2053L68.8037 61.009C68.3558 60.5764 67.7559 60.337 67.1332 60.3424C66.5105 60.3478 65.9148 60.5976 65.4744 61.0379C65.0341 61.4783 64.7843 62.074 64.7789 62.6967C64.7735 63.3194 65.0129 63.9193 65.4455 64.3673Z" fill="white"/>
<path fill-rule="evenodd" clip-rule="evenodd" d="M67.1221 82.8115H84.8776C85.5075 82.8115 86.1116 82.5613 86.557 82.1159C87.0024 81.6705 87.2526 81.0664 87.2526 80.4365C87.2526 79.8066 87.0024 79.2025 86.557 78.7571C86.1116 78.3117 85.5075 78.0615 84.8776 78.0615H67.1221C66.4922 78.0615 65.8881 78.3117 65.4427 78.7571C64.9973 79.2025 64.7471 79.8066 64.7471 80.4365C64.7471 81.0664 64.9973 81.6705 65.4427 82.1159C65.8881 82.5613 66.4922 82.8115 67.1221 82.8115Z" fill="white"/>
<path fill-rule="evenodd" clip-rule="evenodd" d="M67.1221 91.675H84.8776C85.5075 91.675 86.1116 91.4248 86.557 90.9794C87.0024 90.534 87.2526 89.9299 87.2526 89.3C87.2526 88.6701 87.0024 88.066 86.557 87.6206C86.1116 87.1752 85.5075 86.925 84.8776 86.925H67.1221C66.4922 86.925 65.8881 87.1752 65.4427 87.6206C64.9973 88.066 64.7471 88.6701 64.7471 89.3C64.7471 89.9299 64.9973 90.534 65.4427 90.9794C65.8881 91.4248 66.4922 91.675 67.1221 91.675Z" fill="white"/>
</svg>
